<svg xmlns="http://www.w3.org/2000/svg" viewBox="0 0 497.44 167.04"><defs><style>.cls-1{fill:none;stroke:#fdeb07;stroke-miterlimit:10;stroke-width:4.15px;}.cls-2{fill:#6cb6d2;}.cls-2,.cls-4{opacity:0.8;}.cls-3{fill:#2daa59;opacity:0.7;}.cls-5{fill:#fdeb07;}.cls-6{fill:#f5f3f1;}</style></defs><title>Asset 4</title><g id="Layer_2" data-name="Layer 2"><g id="Layer_1-2" data-name="Layer 1"><polyline class="cls-1" points="2.08 167.04 2.08 3.06 114.65 47.68 227.19 3.06 227.23 167.04"/><polygon class="cls-2" points="62.45 77.67 221.24 12.99 221.24 166.45 62.45 166.45 62.45 77.67"/><polygon class="cls-3" points="166.62 77.67 7.83 12.99 7.83 166.45 166.62 166.45 166.62 77.67"/><g class="cls-4"><path class="cls-5" d="M287.17,107.67a.17.17,0,0,1,.18-.19h5.09a6.13,6.13,0,0,1,1.51.18,4.67,4.67,0,0,1,1.28.53,2.45,2.45,0,0,1,.91,1,3.17,3.17,0,0,1,.33,1.48,2.74,2.74,0,0,1-1.4,2.58.35.35,0,0,0-.18.36.34.34,0,0,0,.24.32,3.07,3.07,0,0,1,1.48,1.17,3.21,3.21,0,0,1,.51,1.82,3.64,3.64,0,0,1-.14,1,2.5,2.5,0,0,1-.39.82,2.76,2.76,0,0,1-.6.63,3.38,3.38,0,0,1-.74.46,6.83,6.83,0,0,1-.87.31,8.06,8.06,0,0,1-1.91.23h-5.12a.12.12,0,0,1-.09,0,.23.23,0,0,1-.07-.07s0-.05,0-.09Zm5.25.57h-4.11a.38.38,0,0,0-.37.37V113a.32.32,0,0,0,0,.14.21.21,0,0,0,.08.12.38.38,0,0,0,.26.11h4.11a5.78,5.78,0,0,0,1.22-.13,3.66,3.66,0,0,0,1-.42,2,2,0,0,0,.75-.8,2.57,2.57,0,0,0,.27-1.21,2.35,2.35,0,0,0-.28-1.19,2.07,2.07,0,0,0-.75-.8,3.76,3.76,0,0,0-1-.41A5.1,5.1,0,0,0,292.42,108.24Zm-4.11,5.86a.32.32,0,0,0-.14,0l-.12.07a.25.25,0,0,0-.08.12.4.4,0,0,0,0,.15v4.79a.38.38,0,0,0,.37.37h4.11a6.85,6.85,0,0,0,1.4-.14,5.28,5.28,0,0,0,1.23-.43,2.26,2.26,0,0,0,.94-.87,2.57,2.57,0,0,0,.35-1.36,2.52,2.52,0,0,0-.24-1.12,2.35,2.35,0,0,0-.62-.79,3.49,3.49,0,0,0-.92-.49,5.65,5.65,0,0,0-1-.26,9.4,9.4,0,0,0-1.1-.07Z"/><path class="cls-5" d="M306.92,120.39h-.4a.16.16,0,0,1-.13-.06.18.18,0,0,1-.06-.13V107.67a.18.18,0,0,1,.06-.13.16.16,0,0,1,.13-.06h.4a.17.17,0,0,1,.19.19V120.2A.17.17,0,0,1,306.92,120.39Z"/><path class="cls-5" d="M324.45,108.24h-7a.34.34,0,0,0-.17.05.62.62,0,0,0-.14.14.32.32,0,0,0-.06.18V113a.36.36,0,0,0,.11.26.38.38,0,0,0,.26.11h6.16a.21.21,0,0,1,.2.2V114a.2.2,0,0,1-.06.15.2.2,0,0,1-.14,0h-6.16a.42.42,0,0,0-.26.1.37.37,0,0,0-.11.27v4.72a.32.32,0,0,0,.06.18.62.62,0,0,0,.14.14.34.34,0,0,0,.17,0h7.23a.17.17,0,0,1,.14.06.16.16,0,0,1,.06.12v.39a.18.18,0,0,1-.06.13.17.17,0,0,1-.14.06H316.5a.14.14,0,0,1-.09,0s-.05,0-.06-.07a.12.12,0,0,1,0-.09V107.67a.12.12,0,0,1,0-.09s0,0,.06-.07a.14.14,0,0,1,.09,0h7.95a.18.18,0,0,1,.2.19v.39a.14.14,0,0,1-.06.12A.17.17,0,0,1,324.45,108.24Z"/><path class="cls-5" d="M343.43,120.31l-7.87-10.72a.34.34,0,0,0-.42-.13.34.34,0,0,0-.26.35V120.2a.17.17,0,0,1-.18.19h-.41a.12.12,0,0,1-.09,0,.23.23,0,0,1-.07-.07s0-.05,0-.09V107.67a.17.17,0,0,1,.05-.13.18.18,0,0,1,.13-.06h.63a.16.16,0,0,1,.14.08L343,118.28a.38.38,0,0,0,.68-.22V107.67a.2.2,0,0,1,0-.09.16.16,0,0,1,.07-.07.17.17,0,0,1,.1,0h.38a.16.16,0,0,1,.13.06.18.18,0,0,1,.06.13V120.2a.17.17,0,0,1-.19.19h-.62A.18.18,0,0,1,343.43,120.31Z"/><path class="cls-5" d="M361.73,108.24h-7a.37.37,0,0,0-.18.05.62.62,0,0,0-.14.14.31.31,0,0,0-.05.18V113a.33.33,0,0,0,.11.26.36.36,0,0,0,.26.11h6.15a.2.2,0,0,1,.15.06.2.2,0,0,1,.05.14V114a.18.18,0,0,1-.2.2h-6.15a.4.4,0,0,0-.26.1.33.33,0,0,0-.11.27v4.72a.31.31,0,0,0,.05.18.62.62,0,0,0,.14.14.37.37,0,0,0,.18,0H362a.2.2,0,0,1,.15.06.18.18,0,0,1,.05.12v.39a.21.21,0,0,1-.05.13.2.2,0,0,1-.15.06h-8.18a.17.17,0,0,1-.1,0l-.06-.07a.12.12,0,0,1,0-.09V107.67a.12.12,0,0,1,0-.09l.06-.07a.17.17,0,0,1,.1,0h7.94c.14,0,.2.07.2.19v.39a.17.17,0,0,1-.05.12A.2.2,0,0,1,361.73,108.24Z"/><path class="cls-5" d="M371.9,118a6,6,0,0,0,1.89,1.16,5.93,5.93,0,0,0,2.17.42,5.43,5.43,0,0,0,1.22-.13,5.55,5.55,0,0,0,1.17-.39,2.32,2.32,0,0,0,.9-.77,2,2,0,0,0,.34-1.18,2.36,2.36,0,0,0-.41-1.4,2.82,2.82,0,0,0-1.08-.88,10.48,10.48,0,0,0-1.47-.56l-1.61-.5a8.24,8.24,0,0,1-1.47-.64,2.93,2.93,0,0,1-1.52-2.65,2.62,2.62,0,0,1,.39-1.43,2.72,2.72,0,0,1,1-1,5.44,5.44,0,0,1,1.36-.51,6.46,6.46,0,0,1,1.48-.16,7,7,0,0,1,1.83.25,6,6,0,0,1,1.71.71.16.16,0,0,1,.07.24l-.18.36a.25.25,0,0,1-.12.11.17.17,0,0,1-.14,0,6.14,6.14,0,0,0-3.21-.83,6.51,6.51,0,0,0-.88.06,4.92,4.92,0,0,0-.9.22,3.4,3.4,0,0,0-.81.4,1.85,1.85,0,0,0-.58.63,1.82,1.82,0,0,0-.22.88,2.17,2.17,0,0,0,.43,1.36,2.77,2.77,0,0,0,1.08.86,12.07,12.07,0,0,0,1.48.55l1.61.53a8.59,8.59,0,0,1,1.47.65,3,3,0,0,1,1.07,1.06,3.12,3.12,0,0,1,.42,1.66,2.81,2.81,0,0,1-.41,1.52,2.93,2.93,0,0,1-1.07,1,6,6,0,0,1-1.43.55,6.81,6.81,0,0,1-1.57.18,6.42,6.42,0,0,1-2.41-.47,6.6,6.6,0,0,1-2.09-1.28.18.18,0,0,1,0-.24l.22-.35a.16.16,0,0,1,.13-.09A.13.13,0,0,1,371.9,118Z"/><path class="cls-5" d="M410.16,120.39a.16.16,0,0,1-.14-.08l-2.86-4.11a.38.38,0,0,0-.37-.16,7.12,7.12,0,0,1-.86,0h-3.41a.36.36,0,0,0-.26.11.34.34,0,0,0-.11.26v3.74a.21.21,0,0,1-.19.19h-.4a.16.16,0,0,1-.13-.06.18.18,0,0,1-.06-.13V107.67a.12.12,0,0,1,0-.09l.06-.07a.17.17,0,0,1,.1,0h4.37a7.44,7.44,0,0,1,1.95.24,4.89,4.89,0,0,1,1.58.74,3.32,3.32,0,0,1,1.09,1.33,5,5,0,0,1-.29,4.44,3.82,3.82,0,0,1-2,1.51.34.34,0,0,0-.24.24.35.35,0,0,0,.05.33l2.71,3.78a.15.15,0,0,1,0,.19.18.18,0,0,1-.17.11Zm-8-11.78V115a.38.38,0,0,0,.38.38h3.41a5,5,0,0,0,3.07-.87,3.17,3.17,0,0,0,1.17-2.72,3.71,3.71,0,0,0-.22-1.33,3,3,0,0,0-.6-1,3,3,0,0,0-.92-.66,4.93,4.93,0,0,0-1.16-.38,7,7,0,0,0-1.34-.12h-3.41a.37.37,0,0,0-.27.11A.33.33,0,0,0,402.15,108.61Z"/><path class="cls-5" d="M431.23,120.39a.16.16,0,0,1-.17-.12l-1.64-3.59a.37.37,0,0,0-.33-.22l-.63,0c-.9,0-1.84-.07-2.8-.07s-1.9,0-2.82.07l-.64,0a.35.35,0,0,0-.31.22c-.48,1.07-1,2.27-1.63,3.59a.17.17,0,0,1-.16.12h-.45a.2.2,0,0,1-.16-.26l5.67-12.54a.2.2,0,0,1,.17-.11h.59a.18.18,0,0,1,.18.11l5.74,12.54a.2.2,0,0,1,0,.17.2.2,0,0,1-.17.09Zm-8.66-5.24a.4.4,0,0,0,0,.38.34.34,0,0,0,.33.16c.9,0,1.81-.08,2.72-.08s1.79,0,2.69.08a.34.34,0,0,0,.33-.16.42.42,0,0,0,0-.38c-1.82-4-2.73-6-2.75-6a.36.36,0,0,0-.35-.22.39.39,0,0,0-.35.22C424.44,111,423.54,113,422.57,115.15Z"/><path class="cls-5" d="M440.87,120.39h-.41a.18.18,0,0,1-.13-.06.21.21,0,0,1-.05-.13V107.67a.21.21,0,0,1,.05-.13.18.18,0,0,1,.13-.06h.41a.17.17,0,0,1,.18.19V120.2A.17.17,0,0,1,440.87,120.39Z"/><path class="cls-5" d="M461.34,118.75a6.72,6.72,0,0,1-2,1.22,6.6,6.6,0,0,1-2.35.43,6.8,6.8,0,0,1-3.32-.84,6.55,6.55,0,0,1-2.44-2.35,6.37,6.37,0,0,1,0-6.56,6.6,6.6,0,0,1,2.44-2.34,6.8,6.8,0,0,1,3.32-.84,6.53,6.53,0,0,1,4.38,1.62.16.16,0,0,1,0,.26l-.22.29a.23.23,0,0,1-.14.07.19.19,0,0,1-.14,0A5.79,5.79,0,0,0,457,108.2,5.94,5.94,0,0,0,454,109a5.73,5.73,0,0,0-2.17,2.06,5.63,5.63,0,0,0,0,5.82A5.75,5.75,0,0,0,454,118.9a5.94,5.94,0,0,0,2.93.75,5.82,5.82,0,0,0,3.91-1.46.19.19,0,0,1,.28,0l.22.26a.17.17,0,0,1,.05.14A.27.27,0,0,1,461.34,118.75Z"/><path class="cls-5" d="M478.76,108.24h-7a.34.34,0,0,0-.17.05.62.62,0,0,0-.14.14.32.32,0,0,0-.06.18V113a.36.36,0,0,0,.11.26.38.38,0,0,0,.26.11h6.16a.2.2,0,0,1,.15.06.2.2,0,0,1,.05.14V114a.18.18,0,0,1-.2.2h-6.16a.42.42,0,0,0-.26.1.37.37,0,0,0-.11.27v4.72a.32.32,0,0,0,.06.18.62.62,0,0,0,.14.14.34.34,0,0,0,.17,0H479a.17.17,0,0,1,.14.06.16.16,0,0,1,.06.12v.39a.18.18,0,0,1-.06.13.17.17,0,0,1-.14.06h-8.19a.16.16,0,0,1-.09,0l-.06-.07a.12.12,0,0,1,0-.09V107.67a.12.12,0,0,1,0-.09l.06-.07a.16.16,0,0,1,.09,0h7.95a.18.18,0,0,1,.2.19v.39a.14.14,0,0,1-.06.12A.17.17,0,0,1,478.76,108.24Z"/><path class="cls-5" d="M488.93,118a6.14,6.14,0,0,0,4.05,1.58,5.58,5.58,0,0,0,1.23-.13,5.46,5.46,0,0,0,1.16-.39,2.19,2.19,0,0,0,.9-.77,2,2,0,0,0,.34-1.18,2.3,2.3,0,0,0-.41-1.4,2.82,2.82,0,0,0-1.08-.88,10.33,10.33,0,0,0-1.46-.56l-1.62-.5a8.24,8.24,0,0,1-1.47-.64,3.09,3.09,0,0,1-1.09-1,3,3,0,0,1-.42-1.61,2.7,2.7,0,0,1,.38-1.43,2.74,2.74,0,0,1,1-1,5.52,5.52,0,0,1,1.35-.51,6.61,6.61,0,0,1,1.49-.16,7,7,0,0,1,1.83.25,6,6,0,0,1,1.7.71.17.17,0,0,1,.08.24l-.19.36a.19.19,0,0,1-.12.11.17.17,0,0,1-.14,0,6.13,6.13,0,0,0-3.2-.83,6.65,6.65,0,0,0-.89.06,5.35,5.35,0,0,0-.9.22,3.4,3.4,0,0,0-.81.4,1.93,1.93,0,0,0-.57.63,1.72,1.72,0,0,0-.22.88,2.22,2.22,0,0,0,.42,1.36,2.81,2.81,0,0,0,1.09.86,11.32,11.32,0,0,0,1.47.55l1.62.53a8.48,8.48,0,0,1,1.46.65,3.13,3.13,0,0,1,1.08,1.06,3.22,3.22,0,0,1,.41,1.66,2.8,2.8,0,0,1-.4,1.52,2.89,2.89,0,0,1-1.08,1,5.88,5.88,0,0,1-1.43.55,6.66,6.66,0,0,1-1.56.18,6.43,6.43,0,0,1-2.42-.47,6.55,6.55,0,0,1-2.08-1.28.17.17,0,0,1,0-.24l.22-.35a.18.18,0,0,1,.13-.09A.15.15,0,0,1,488.93,118Z"/></g><path class="cls-6" d="M326.19,64.52a1,1,0,0,1,.78.35,1.16,1.16,0,0,1,.32.82V94a1.15,1.15,0,0,1-.32.82,1,1,0,0,1-.78.35h-7.08a1,1,0,0,1-.78-.35A1.19,1.19,0,0,1,318,94V78.73l-7.68,15.82a1.34,1.34,0,0,1-.42.47,1,1,0,0,1-.53.19h-3.33a.91.91,0,0,1-.53-.19,1.37,1.37,0,0,1-.43-.47l-7.65-15.78V94a1.15,1.15,0,0,1-.32.82,1,1,0,0,1-.77.35h-7.09a1,1,0,0,1-.77-.35,1.15,1.15,0,0,1-.32-.82V65.69a1.16,1.16,0,0,1,.32-.82,1,1,0,0,1,.77-.35h8.29a1,1,0,0,1,.51.18.9.9,0,0,1,.41.41l9.28,16.64,9.17-16.64a1.1,1.1,0,0,1,.42-.41,1,1,0,0,1,.53-.18Z"/><path class="cls-6" d="M356.18,95.21a1.17,1.17,0,0,1-1-.66l-1.8-3.84H340.14l-1.8,3.84a1.37,1.37,0,0,1-.43.47,1,1,0,0,1-.56.19H330a1.1,1.1,0,0,1-1-.54,1.19,1.19,0,0,1,0-1.22l14.55-28.3a1,1,0,0,1,.42-.43,1.1,1.1,0,0,1,.53-.2h6.27a1,1,0,0,1,.53.2,1.18,1.18,0,0,1,.42.47l13.71,28.3a1.33,1.33,0,0,1,0,1.2,1,1,0,0,1-1,.52ZM343.61,83.82h6.59L347,77Z"/><path class="cls-6" d="M377.6,84.37V94a1.19,1.19,0,0,1-.32.82,1,1,0,0,1-.78.35h-7.86a1,1,0,0,1-.74-.35,1.19,1.19,0,0,1-.32-.82V65.69a1.21,1.21,0,0,1,.32-.82,1,1,0,0,1,.74-.35h17.78a11.31,11.31,0,0,1,7.33,2.23,7.85,7.85,0,0,1,3,6.38q0,4.47-2.44,6.46a9,9,0,0,1-1.4,1,11.74,11.74,0,0,1-1.75.8,9.84,9.84,0,0,1,3.25,3l4.85,9a1.26,1.26,0,0,1,.06,1.24,1,1,0,0,1-1,.56h-9a.92.92,0,0,1-.55-.19,1.41,1.41,0,0,1-.41-.47l-4.53-9.32,0,.08-.3-.39a1.68,1.68,0,0,0-.34-.32,5.43,5.43,0,0,0-2.19-.23Zm-.21-12.84v5.83h4.25a9.22,9.22,0,0,0,3.93-.66,2.43,2.43,0,0,0,1.34-2.39,2.35,2.35,0,0,0-1-2.12,5.56,5.56,0,0,0-3-.66Z"/><path class="cls-6" d="M408.41,95.21a1,1,0,0,1-.75-.35,1.19,1.19,0,0,1-.32-.82V72.23H400a1,1,0,0,1-.77-.35A1.27,1.27,0,0,1,399,71V65.69a1.24,1.24,0,0,1,.3-.82,1,1,0,0,1,.77-.35h24.5a1,1,0,0,1,.77.35,1.16,1.16,0,0,1,.32.82V71a1.19,1.19,0,0,1-.32.86,1,1,0,0,1-.77.35h-7.3V94a1.22,1.22,0,0,1-.3.82,1,1,0,0,1-.76.35Z"/><path class="cls-6" d="M429.4,95.21a1,1,0,0,1-.74-.35,1.19,1.19,0,0,1-.32-.82V65.69a1.21,1.21,0,0,1,.32-.82,1,1,0,0,1,.74-.35H450a1,1,0,0,1,.75.35,1.21,1.21,0,0,1,.32.82v5.72a1.24,1.24,0,0,1-.32.86,1,1,0,0,1-.75.36H438.15v3.13h10.16a1,1,0,0,1,.74.35,1.19,1.19,0,0,1,.32.82v5.64a1.25,1.25,0,0,1-.32.86,1,1,0,0,1-.74.35l-10.16,0v3.29H451a1,1,0,0,1,.76.35,1.31,1.31,0,0,1,.3.86V94a1.22,1.22,0,0,1-.3.82,1,1,0,0,1-.76.35Z"/><path class="cls-6" d="M471.57,64.52a13.4,13.4,0,0,1,10.3,4.27Q485.8,73,485.8,79.87a15.77,15.77,0,0,1-4,11,13.09,13.09,0,0,1-10.13,4.3H456.13a1,1,0,0,1-.78-.35A1.19,1.19,0,0,1,455,94V65.69a1.21,1.21,0,0,1,.32-.82,1,1,0,0,1,.78-.35Zm3.36,10.85a4.41,4.41,0,0,0-3.65-1.53h-6.23V85.9H471a4.85,4.85,0,0,0,3.86-1.51,6.67,6.67,0,0,0,1.31-4.48A7,7,0,0,0,474.93,75.37Z"/><path class="cls-6" d="M489.69,95.21a.77.77,0,0,1-.65-.35,1.3,1.3,0,0,1-.27-.82V65.69a1.32,1.32,0,0,1,.27-.82.8.8,0,0,1,.65-.35h6.59a.82.82,0,0,1,.66.35,1.38,1.38,0,0,1,.26.82V94a1.36,1.36,0,0,1-.26.82.79.79,0,0,1-.66.35Z"/></g></g></svg>