<svg id="Layer_1" data-name="Layer 1" xmlns="http://www.w3.org/2000/svg" viewBox="0 0 1098.82 364.01"><defs><style>.cls-1{fill:#fdeb07;}.cls-2{fill:#6cb6d2;}.cls-2,.cls-4{opacity:0.8;}.cls-3{fill:#2daa59;opacity:0.7;}.cls-5{fill:#f5f3f1;}</style></defs><title>MartediLogo</title><polygon class="cls-1" points="499.57 361.32 499.5 8.81 257.56 104.75 256.8 104.44 15.57 8.81 15.57 361.32 11.57 361.32 11.57 2.7 257.6 100.28 503.57 2.7 503.64 361.32 499.57 361.32"/><polygon class="cls-2" points="144.57 167.82 488.57 27.57 488.57 360.32 144.57 360.32 144.57 167.82"/><polygon class="cls-3" points="369.57 167.82 25.57 27.57 25.57 360.32 369.57 360.32 369.57 167.82"/><g class="cls-4"><path class="cls-1" d="M631.57,232.71a.38.38,0,0,1,.39-.39h11a13.09,13.09,0,0,1,3.27.38,9.73,9.73,0,0,1,2.79,1.16,5.35,5.35,0,0,1,2,2.16,6.74,6.74,0,0,1,.72,3.22,5.93,5.93,0,0,1-3,5.59.83.83,0,0,0-.41.79.81.81,0,0,0,.52.7,6.53,6.53,0,0,1,3.22,2.52,7,7,0,0,1,1.1,4,7.5,7.5,0,0,1-.3,2.22,6,6,0,0,1-.83,1.78,6.44,6.44,0,0,1-1.31,1.35,7.57,7.57,0,0,1-1.62,1,11.83,11.83,0,0,1-1.88.66,16.41,16.41,0,0,1-2,.37,17.88,17.88,0,0,1-2.12.13H632a.37.37,0,0,1-.21-.06.47.47,0,0,1-.13-.15.24.24,0,0,1-.06-.19Zm10.68.61h-8.88a.79.79,0,0,0-.8.79v9.41a1,1,0,0,0,.06.32.65.65,0,0,0,.17.25.8.8,0,0,0,.26.16.64.64,0,0,0,.31.07h8.88a12.17,12.17,0,0,0,2.65-.28,7.91,7.91,0,0,0,2.25-.9,4.21,4.21,0,0,0,1.61-1.73,5.6,5.6,0,0,0,.58-2.63,5.36,5.36,0,0,0-.59-2.57,4.52,4.52,0,0,0-1.64-1.72,7.6,7.6,0,0,0-2.23-.89A11.35,11.35,0,0,0,642.25,233.32Zm-8.88,13a.73.73,0,0,0-.3.06,1.1,1.1,0,0,0-.26.15.68.68,0,0,0-.18.26,1,1,0,0,0-.06.32v10.41a.77.77,0,0,0,.24.56.76.76,0,0,0,.56.24h8.92a14.51,14.51,0,0,0,3-.3,11.69,11.69,0,0,0,2.68-.94,5.06,5.06,0,0,0,2-1.88,5.65,5.65,0,0,0,.76-3,5.47,5.47,0,0,0-.52-2.41,4.88,4.88,0,0,0-1.36-1.72,6.94,6.94,0,0,0-2-1.07,12,12,0,0,0-2.26-.55,16.58,16.58,0,0,0-2.4-.16Z"/><path class="cls-1" d="M674.16,260.32h-.88a.87.87,0,0,0-.28-.5.82.82,0,0,0-.43-.28V232.37a.82.82,0,0,0,.43-.28c.07-.08.17-.12.28.23h.88c.26-.35.4-.22.41.05v27.17C674.56,259.81,674.42,259.94,674.16,260.32Z"/><path class="cls-1" d="M712.15,233.32H696.39a.68.68,0,0,0-.39.11,1.11,1.11,0,0,0-.31.3.65.65,0,0,0-.12.37v9.43a.75.75,0,0,0,.24.55.82.82,0,0,0,.58.24h13.72a.45.45,0,0,1,.33.12.42.42,0,0,1,.13.31v1.12a.44.44,0,0,1-.13.32.45.45,0,0,1-.33.13H696.39a.84.84,0,0,0-.58.22.76.76,0,0,0-.24.59v10.38a.68.68,0,0,0,.12.38.92.92,0,0,0,.31.31.69.69,0,0,0,.39.12h16.28a.69.69,0,0,1,.32.1c.08.08.12.18.58.28v.84c-.46.11-.5.2-.58.28a1,1,0,0,0-.32.5H694.93c-.08-.38-.15-.4-.2-.44a.93.93,0,0,1-.14-.14c0-.05,0-.2,0-.2V232.37s0-.15,0-.2a.93.93,0,0,1,.14-.14s.12-.06.2-.71h17.22c.29.65.44.78.42,1.05v.84a.3.3,0,0,1-.1.28C712.39,233.56,712.15,233.32,712.15,233.32Z"/><path class="cls-1" d="M753.45,260.16l-17.38-23.28a.74.74,0,0,0-.94-.28.76.76,0,0,0-.56.76v22.56a.36.36,0,0,1-.41.4H733a.32.32,0,0,1-.2-.06.4.4,0,0,1-.14-.15.24.24,0,0,1-.06-.19V232.71a.34.34,0,0,1,.12-.27.38.38,0,0,1,.28-.12h1.38a.38.38,0,0,1,.33.16l17.39,23.27a.75.75,0,0,0,.93.29.76.76,0,0,0,.57-.76V232.71a.38.38,0,0,1,0-.19.64.64,0,0,1,.14-.15.59.59,0,0,1,.23-.05h1.18a.38.38,0,0,1,.28.12.35.35,0,0,1,.13.27v27.21a.4.4,0,0,1-.4.4h-1.39A.41.41,0,0,1,753.45,260.16Z"/><path class="cls-1" d="M793,233.32h-15.6a.68.68,0,0,0-.39.11,1.11,1.11,0,0,0-.31.3.65.65,0,0,0-.12.37v9.43a.75.75,0,0,0,.24.55.82.82,0,0,0,.58.24h13.72a.45.45,0,0,1,.33.12.42.42,0,0,1,.13.31v1.12a.44.44,0,0,1-.13.32.45.45,0,0,1-.33.13H777.39a.84.84,0,0,0-.58.22.76.76,0,0,0-.24.59v10.38a.68.68,0,0,0,.12.38.92.92,0,0,0,.31.31.69.69,0,0,0,.39.12h16.12a.69.69,0,0,1,.32.1c.08.08.12.18.74.28v.84c-.62.11-.66.2-.74.28a1,1,0,0,0-.32.5H775.77c-.08-.38-.15-.4-.2-.44l-.14-.14c0-.05.14-.2.14-.2V232.37s-.18-.15-.14-.2a.93.93,0,0,1,.14-.14s.12-.06.2-.71H793a10.27,10.27,0,0,0,.58,1.05v.84a2,2,0,0,0-.26.28C793.23,233.56,793,233.32,793,233.32Z"/><path class="cls-1" d="M815.05,254.83a13.44,13.44,0,0,0,8.79,3.43,12.32,12.32,0,0,0,2.66-.28,11,11,0,0,0,2.52-.86,4.8,4.8,0,0,0,2-1.66,4.41,4.41,0,0,0,.74-2.56,5,5,0,0,0-.9-3,6.12,6.12,0,0,0-2.34-1.92,22.21,22.21,0,0,0-3.18-1.19c-1.15-.35-2.32-.72-3.49-1.1a18.79,18.79,0,0,1-3.2-1.38,6.62,6.62,0,0,1-2.36-2.26,6.45,6.45,0,0,1-.92-3.5,5.68,5.68,0,0,1,.84-3.09,5.74,5.74,0,0,1,2.24-2.08,11.84,11.84,0,0,1,2.94-1.1,14,14,0,0,1,3.21-.36,15.66,15.66,0,0,1,4,.54,13.48,13.48,0,0,1,3.7,1.54.37.37,0,0,1,.16.52l-.4.79a.46.46,0,0,1-.26.23.29.29,0,0,1-.3-.07,13.51,13.51,0,0,0-7-1.8,12.55,12.55,0,0,0-1.93.15,10.65,10.65,0,0,0-1.95.48,7,7,0,0,0-1.76.85,4.15,4.15,0,0,0-1.24,1.36,3.83,3.83,0,0,0-.48,1.92,4.75,4.75,0,0,0,.92,2.94,6.07,6.07,0,0,0,2.36,1.88,27.75,27.75,0,0,0,3.19,1.2c1.18.36,2.34.73,3.5,1.14a18.51,18.51,0,0,1,3.18,1.41,6.42,6.42,0,0,1,2.33,2.3,6.82,6.82,0,0,1,.91,3.6,6.15,6.15,0,0,1-.88,3.29,6.23,6.23,0,0,1-2.34,2.22,12.69,12.69,0,0,1-3.1,1.2,14.56,14.56,0,0,1-3.39.4,14.9,14.9,0,0,1-9.76-3.8.4.4,0,0,1-.08-.52l.48-.75a.39.39,0,0,1,.28-.21A.3.3,0,0,1,815.05,254.83Z"/><path class="cls-1" d="M897.37,259.32a.36.36,0,0,1-.31-.16l-6-8.61a.81.81,0,0,0-.77-.35,12.05,12.05,0,0,1-1.82.12h-7.14a.7.7,0,0,0-.54.23.73.73,0,0,0-.23.54v8.45a.51.51,0,0,1-.06.28c-.08.08-.17.12-.28-.5h-.88c-.11.62-.2.58-.28.5a.82.82,0,0,0-.5-.28V232.37c.38-.08.4-.15.44-.2a.62.62,0,0,1,.14-.14c.05,0,.12-.06.2.29h9.47a8.53,8.53,0,0,1,4.23.17,10.74,10.74,0,0,1,3.44,1.59,7.26,7.26,0,0,1,2.36,2.88,10.89,10.89,0,0,1-.62,9.64,8.34,8.34,0,0,1-4.37,3.27.71.71,0,0,0-.52.52.77.77,0,0,0,.11.72l5.88,8.19a.35.35,0,0,1,0,.42c-.08.15-.36-.4-.36-.4Zm-16.8-25.23V247.5a.76.76,0,0,0,.23.58.77.77,0,0,0,.58.24h7.21a10.58,10.58,0,0,0,6.49-1.85c1.65-1.24,2.48-3.15,2.48-5.75a8.1,8.1,0,0,0-.47-2.82,6,6,0,0,0-3.22-3.53,9.91,9.91,0,0,0-2.45-.8,14.75,14.75,0,0,0-2.83-.25h-7.21a.76.76,0,0,0-.58.23A.72.72,0,0,0,880.57,234.09Z"/><path class="cls-1" d="M943.69,260.32a.35.35,0,0,1-.36-.24l-3.55-7.8a.79.79,0,0,0-.73-.48l-1.36-.08q-3-.16-6.08-.16t-6.12.16c-.53,0-1,.05-1.39.08a.78.78,0,0,0-.68.47c-1,2.32-2.22,4.93-3.52,7.81a.4.4,0,0,1-.37.24h-1a.37.37,0,0,1-.32-.18.43.43,0,0,1,0-.38l12.32-27.2a.4.4,0,0,1,.37-.24h1.28a.41.41,0,0,1,.39.24L945,259.76a.37.37,0,0,1,0,.38.39.39,0,0,1-.36.18ZM924.9,248.59a.86.86,0,0,0,.1.82.72.72,0,0,0,.7.34c2-.1,3.94-.16,5.91-.16s3.89.06,5.84.16a.73.73,0,0,0,.7-.34.86.86,0,0,0,.1-.82q-5.91-12.94-6-13.07a.79.79,0,0,0-.76-.48.8.8,0,0,0-.76.48Q928.06,241.64,924.9,248.59Z"/><path class="cls-1" d="M964.59,260.32h-.88a.82.82,0,0,0-.28-.5c-.08-.08-.12-.17.14-.28V232.37c-.26-.11-.22-.2-.14-.28s.17-.12.28.23h.88c.26-.35.4-.22,1,.05v27.17A1.87,1.87,0,0,0,964.59,260.32Z"/><path class="cls-1" d="M1009,256.39a14.74,14.74,0,0,1-9.55,3.59,14.58,14.58,0,0,1-7.2-1.84,14,14,0,0,1-5.29-5.09,13.74,13.74,0,0,1,0-14.21,14.07,14.07,0,0,1,5.29-5.07,14.58,14.58,0,0,1,7.2-1.84,14.24,14.24,0,0,1,9.51,3.51.36.36,0,0,1,.08.57l-.48.63a.54.54,0,0,1-.3.15.36.36,0,0,1-.3-.11,12.56,12.56,0,0,0-8.48-3.15,12.9,12.9,0,0,0-6.37,1.62,12.35,12.35,0,0,0-4.69,4.47,11.7,11.7,0,0,0-1.76,6.3,11.83,11.83,0,0,0,1.76,6.31,12.5,12.5,0,0,0,4.69,4.5,13.11,13.11,0,0,0,6.37,1.61,12.65,12.65,0,0,0,8.48-3.15.42.42,0,0,1,.6,0l.48.57a.38.38,0,0,1,.1.29A.47.47,0,0,1,1009,256.39Z"/><path class="cls-1" d="M1046.74,233.32h-15.35a.68.68,0,0,0-.39.11,1.11,1.11,0,0,0-.31.3.65.65,0,0,0-.12.37v9.43a.75.75,0,0,0,.24.55.82.82,0,0,0,.58.24h13.72a.45.45,0,0,1,.33.12.42.42,0,0,1,.13.31v1.12a.44.44,0,0,1-.13.32.45.45,0,0,1-.33.13h-13.72a.84.84,0,0,0-.58.22.76.76,0,0,0-.24.59v10.38a.68.68,0,0,0,.12.38.92.92,0,0,0,.31.31.69.69,0,0,0,.39.12h15.87a.69.69,0,0,1,.32.1c.08.08.12.18,0,.28v.84a.16.16,0,0,1,0,.28.89.89,0,0,0-.32.5h-17.74c-.08-.38-.15-.4-.2-.44a.47.47,0,0,1-.14-.14,3.91,3.91,0,0,0-.61-.2V232.37a3.91,3.91,0,0,0,.61-.2.47.47,0,0,1,.14-.14s.12-.06.2-.71h17.22a1.93,1.93,0,0,0,.83,1.05v.84a.82.82,0,0,0-.51.28C1047,233.56,1046.74,233.32,1046.74,233.32Z"/><path class="cls-1" d="M1068.79,254.83a13.44,13.44,0,0,0,8.79,3.43,12.32,12.32,0,0,0,2.66-.28,10.88,10.88,0,0,0,2.52-.86,4.8,4.8,0,0,0,2-1.66,4.41,4.41,0,0,0,.74-2.56,5,5,0,0,0-.9-3,6.12,6.12,0,0,0-2.34-1.92,21.76,21.76,0,0,0-3.18-1.19c-1.15-.35-2.32-.72-3.49-1.1a18.79,18.79,0,0,1-3.2-1.38A6.62,6.62,0,0,1,1070,242a6.45,6.45,0,0,1-.92-3.5,5.68,5.68,0,0,1,.84-3.09,5.74,5.74,0,0,1,2.24-2.08,11.84,11.84,0,0,1,2.94-1.1,14.06,14.06,0,0,1,3.22-.36,15.64,15.64,0,0,1,4,.54A13.48,13.48,0,0,1,1086,234a.37.37,0,0,1,.16.52l-.4.79a.46.46,0,0,1-.26.23.29.29,0,0,1-.3-.07,13.51,13.51,0,0,0-7-1.8,12.32,12.32,0,0,0-1.92.15,10.55,10.55,0,0,0-2,.48,7.19,7.19,0,0,0-1.76.85,4.15,4.15,0,0,0-1.24,1.36,3.83,3.83,0,0,0-.48,1.92,4.75,4.75,0,0,0,.92,2.94,6.15,6.15,0,0,0,2.36,1.88,27.25,27.25,0,0,0,3.2,1.2c1.17.36,2.34.73,3.49,1.14A18.51,18.51,0,0,1,1084,247a6.34,6.34,0,0,1,2.33,2.3,6.82,6.82,0,0,1,.91,3.6,6.15,6.15,0,0,1-.88,3.29,6.23,6.23,0,0,1-2.34,2.22,12.39,12.39,0,0,1-3.1,1.2,14.56,14.56,0,0,1-3.39.4,14.9,14.9,0,0,1-9.76-3.8.41.41,0,0,1-.08-.52l.48-.75a.4.4,0,0,1,.28-.21A.3.3,0,0,1,1068.79,254.83Z"/></g><path class="cls-5" d="M716.18,138.32a2.27,2.27,0,0,1,2,1.09,2.62,2.62,0,0,1,.44,1.52V202.7a2.62,2.62,0,0,1-.44,1.52,2.28,2.28,0,0,1-2,1.1H701a2.31,2.31,0,0,1-2-1.08,2.69,2.69,0,0,1-.44-1.54V169.58l-16.81,34.29a2.82,2.82,0,0,1-.93,1,2,2,0,0,1-1.16.43h-7.28a2,2,0,0,1-1.16-.43,2.73,2.73,0,0,1-.93-1l-16.73-34.21v33a2.64,2.64,0,0,1-.45,1.54,2.3,2.3,0,0,1-2,1.08H636a2.27,2.27,0,0,1-2-1.13,2.77,2.77,0,0,1-.42-1.54V141a2.77,2.77,0,0,1,.42-1.54,2.26,2.26,0,0,1,2-1.12h18a2.28,2.28,0,0,1,1.12.38,2.1,2.1,0,0,1,.88.9l20.15,36.32L696,139.6a2.74,2.74,0,0,1,.92-.9,2.17,2.17,0,0,1,1.15-.38Z"/><path class="cls-5" d="M781.46,205.32a2.68,2.68,0,0,1-2.13-1.48l-4-8.52H745.84l-4,8.52a2.93,2.93,0,0,1-1,1,2.14,2.14,0,0,1-1.26.44H724a2.39,2.39,0,0,1-2.24-1.2,2.56,2.56,0,0,1,.08-2.65l31.76-61.79a2.24,2.24,0,0,1,.93-.94,2.38,2.38,0,0,1,1.16-.42h13.68a2.09,2.09,0,0,1,1.15.42,2.75,2.75,0,0,1,.93,1l29.91,61.79a2.89,2.89,0,0,1,0,2.6,2.26,2.26,0,0,1-2.16,1.16Zm-27.75-25H768l-6.91-14.77Z"/><path class="cls-5" d="M827.57,181.32v21.37a2.64,2.64,0,0,1-.45,1.54,2.32,2.32,0,0,1-2,1.09H807.9a2.26,2.26,0,0,1-1.88-1.09,2.65,2.65,0,0,1-.45-1.55V141a2.65,2.65,0,0,1,.45-1.55,2.24,2.24,0,0,1,1.88-1.09h39q10,0,16.09,4.87a17,17,0,0,1,6.53,13.93q0,9.74-5.36,14.1a20.33,20.33,0,0,1-3.07,2.09,25.75,25.75,0,0,1-3.85,1.75,22.09,22.09,0,0,1,4.23,3.16,23.25,23.25,0,0,1,2.92,3.42l10.65,19.75a2.73,2.73,0,0,1,.12,2.69,2.25,2.25,0,0,1-2.14,1.24H853.5a1.94,1.94,0,0,1-1.21-.44,2.83,2.83,0,0,1-.91-1l-10-20.62.09.18-.67-.87a3.2,3.2,0,0,0-.75-.69c-.42-.35-2-.52-4.86-.52Zm-1-27v13H836c3.84,0,6.77-.5,8.76-1.49s3-2.76,3-5.32a5.2,5.2,0,0,0-2.29-4.71,12.22,12.22,0,0,0-6.63-1.48Z"/><path class="cls-5" d="M894.83,205.32a2.16,2.16,0,0,1-1.75-1,3.27,3.27,0,0,1-.51-1.67V155.32H876a2.21,2.21,0,0,1-1.54-.57,2.81,2.81,0,0,1-.85-2.11V141a2.92,2.92,0,0,1,.37-1.51,2.13,2.13,0,0,1,1.94-1.19h53.3a2.29,2.29,0,0,1,2,1.11,2.69,2.69,0,0,1,.43,1.52v11.69a2.72,2.72,0,0,1-.7,1.9,2.17,2.17,0,0,1-1.69.78H913.57v47.36a2.91,2.91,0,0,1-.38,1.5,2.11,2.11,0,0,1-1.88,1.14Z"/><path class="cls-5" d="M939.85,205.32a2.2,2.2,0,0,1-1.86-1.14,2.67,2.67,0,0,1-.42-1.51V141a2.71,2.71,0,0,1,.42-1.52,2.21,2.21,0,0,1,1.86-1.13h44.43a2.2,2.2,0,0,1,1.82,1.06,3.24,3.24,0,0,1,.47,1.61v12.63a2.79,2.79,0,0,1-.69,1.91,2.06,2.06,0,0,1-1.6.79H958.57v7h21.72a2.19,2.19,0,0,1,1.86,1.15,2.72,2.72,0,0,1,.42,1.5v11.79a2.58,2.58,0,0,1-.69,1.82,2.1,2.1,0,0,1-1.59.74l-21.72.08v6.92h27.61a2.14,2.14,0,0,1,1.55.58,2.84,2.84,0,0,1,.84,2.11v12.64a2.91,2.91,0,0,1-.37,1.48,2.16,2.16,0,0,1-1.92,1.19Z"/><path class="cls-5" d="M1031.66,138.32q13.85,0,22.49,9.31t8.58,24.18q0,14.63-8.66,24.11t-22.1,9.4H998a2.31,2.31,0,0,1-2-1.12,2.83,2.83,0,0,1-.42-1.55V141a2.78,2.78,0,0,1,.42-1.55,2.29,2.29,0,0,1,2-1.12Zm6.21,24.29c-1.78-2.2-4.41-3.29-7.87-3.29h-13.43v26h12.83c3.66,0,6.43-1.09,8.32-3.25s2.82-5.39,2.82-9.67S1039.65,164.8,1037.87,162.61Z"/><path class="cls-5" d="M1070.53,205.32a1.68,1.68,0,0,1-1.39-.77,2.89,2.89,0,0,1-.57-1.8V140.88a2.86,2.86,0,0,1,.57-1.79,1.65,1.65,0,0,1,1.39-.77h14.07a1.67,1.67,0,0,1,1.4.77,2.92,2.92,0,0,1,.57,1.79v61.87a3,3,0,0,1-.57,1.8,1.69,1.69,0,0,1-1.4.77Z"/></svg>